<?xml version="1.0" encoding="UTF-8"?>
<svg id="Capa_2" data-name="Capa 2" xmlns="http://www.w3.org/2000/svg" viewBox="0 0 264.43 58.13">
  <defs>
    <style>
      .cls-1 {
        fill: #000;
        stroke-width: 0px;
      }
    </style>
  </defs>
  <g id="Capa_1-2" data-name="Capa 1">
    <g>
      <path class="cls-1" d="M28.97,2.05l-3.12-1.8-.43-.25-.43.25L2.03,13.53C.78,14.25,0,15.58,0,17.03v15.72c0,.36.19.69.51.87l11.93,6.89c1.68.97,3.79-.24,3.79-2.19V15.82c0-2.89,1.54-5.55,4.04-7l8.69-5.02c.67-.39.67-1.36,0-1.75Z"/>
      <path class="cls-1" d="M50.81,17.07c0-1.44-.77-2.77-2.02-3.5l-13.61-7.86c-.31-.18-.7-.18-1.01,0l-11.93,6.89c-1.68.97-1.68,3.4,0,4.37l19.49,11.25c2.5,1.44,4.04,4.11,4.04,7v10.04c0,.78.84,1.26,1.51.88l3.12-1.8.43-.25v-.5s-.02-26.52-.02-26.52Z"/>
      <path class="cls-1" d="M37.78,32.89l-19.49,11.25c-2.5,1.44-5.58,1.44-8.08,0l-8.69-5.02c-.67-.39-1.51.1-1.52.87v3.6s0,.5,0,.5l.43.25,22.98,13.25c1.25.72,2.79.72,4.04,0l13.61-7.86c.31-.18.51-.51.51-.87v-13.78c0-1.94-2.1-3.16-3.79-2.19Z"/>
    </g>
    <path class="cls-1" d="M89.62,14.37h-1.34c-7.36,0-11.53,4.08-11.53,12.27v17.12h4.21c2.06,0,3.74-1.6,3.74-3.57v-15.19c0-1.68,1.43-3.05,3.2-3.05h2.11c1.77,0,3.2,1.37,3.2,3.05v18.76h4.21c2.06,0,3.74-1.6,3.74-3.57v-13.55c0-8.19-4.18-12.27-11.53-12.27Z"/>
    <path class="cls-1" d="M62.8,18.01v25.76h4.34c2.01,0,3.63-1.63,3.63-3.64V14.38h-4.34c-2,0-3.63,1.63-3.63,3.63Z"/>
    <path class="cls-1" d="M184.96,14.44h-1.34c-7.36,0-11.53,4.08-11.53,12.27v17.12h4.21c2.06,0,3.74-1.6,3.74-3.57v-15.19c0-1.68,1.43-3.05,3.2-3.05h2.11c1.77,0,3.2,1.37,3.2,3.05v18.76h4.21c2.06,0,3.74-1.6,3.74-3.57v-13.55c0-8.19-4.18-12.27-11.53-12.27Z"/>
    <path class="cls-1" d="M202.47,18.02v25.76h4.34c2.01,0,3.63-1.63,3.63-3.64V14.39h-4.34c-2,0-3.63,1.63-3.63,3.63Z"/>
    <path class="cls-1" d="M229.62,14.39c-8.12,0-14.7,6.58-14.7,14.7s6.58,14.7,14.7,14.7,14.7-6.58,14.7-14.7-6.58-14.7-14.7-14.7ZM229.62,35.82c-3.72,0-6.74-3.02-6.74-6.74s3.02-6.74,6.74-6.74,6.74,3.02,6.74,6.74-3.02,6.74-6.74,6.74Z"/>
    <path class="cls-1" d="M127.42,16.28c-2.46-1.4-5.36-2.1-8.44-1.84-7.25.62-12.99,6.64-13.33,13.95-.38,8.23,5.96,15.05,13.97,15.39.21,0,.41.01.62.01.01,0,.03,0,.04,0,0,0,0,0,0,0h.66c.7-.02,3.35-.19,6.01-1.62v.82c-.1,1.17-.65,3.28-3.31,4.27-.32.11-.65.21-1,.29-.03,0-.06.01-.09.02-.15.03-.29.06-.44.08-.13.02-.26.04-.4.05-.06,0-.11.02-.16.02-.4.04-.82.07-1.28.07h-5.26s-1.62.03-2.61,1.19c-.98,1.17-.95,2.55-.95,2.55v4.23h8.82c7.17,0,13.13-5.15,14.4-11.96.1-.55.18-1.1.21-1.67.03-.33.04-.67.04-1.01v-2.6h0v-6.29h0v-15.09c0-.27,0-.54,0-.8v-1.89h-4.24c-1.4,0-2.62.74-3.25,1.84ZM120.25,35.83c-3.7,0-6.7-3.02-6.7-6.74s3-6.74,6.7-6.74,6.7,3.02,6.7,6.74-3,6.74-6.7,6.74Z"/>
    <path class="cls-1" d="M260.79,14.39h-15.86v4.32c0,1.99,1.62,3.61,3.63,3.61h1.17s4.59.01,4.59.01c-2,0-3.62,1.63-3.62,3.63v17.83h4.34c2.01,0,3.63-1.63,3.63-3.64v-17.82h5.76v-4.32c0-2-1.63-3.62-3.64-3.62Z"/>
    <path class="cls-1" d="M167.38,22.87c-.43-.92-.95-1.79-1.56-2.59-.94-1.24-2.05-2.33-3.33-3.24-.42-.29-.87-.57-1.33-.83-.61-.33-1.24-.63-1.9-.88-.38-.14-.77-.27-1.16-.38-.22-.07-.45-.13-.68-.18-.12-.03-.24-.06-.37-.08-.95-.2-1.94-.3-2.96-.3-.51,0-1.01.03-1.51.08-.25.02-.49.05-.73.09-.24.04-.48.08-.72.13-.19.04-.37.08-.55.12-.21.05-.42.11-.62.17-.15.04-.3.09-.44.14-.42.13-.84.29-1.25.47-.18.08-.36.16-.54.24,0,.01,0,.01-.02.01-.42.21-.83.43-1.23.67-.49.3-.96.62-1.41.98-.13.1-.26.2-.38.31-.28.23-.55.47-.82.74-.11.1-.22.21-.33.33-1.09,1.12-2,2.42-2.69,3.85-.1.21-.2.43-.29.65-.09.19-.16.39-.24.59-.11.28-.21.58-.3.88-.05.18-.1.36-.15.54,0,.02,0,.05-.02.08-.05.22-.1.44-.15.67-.05.23-.09.46-.13.69v.03c-.04.23-.06.47-.09.71-.03.24-.05.48-.06.72-.01.27-.02.54-.02.81s.01.53.02.8c0,.24.03.48.06.71.03.24.05.48.09.71.25,1.66.77,3.22,1.53,4.64.03.07.06.13.09.18.11.2.22.39.34.58.12.19.24.39.37.58.13.2.27.4.42.59.12.16.24.32.37.48.17.21.35.42.53.61.15.17.3.33.46.49.11.12.23.23.34.33.92.87,1.95,1.62,3.07,2.22.2.12.42.22.63.33.22.11.44.2.66.3.22.09.44.17.66.26.22.08.45.16.68.23.24.07.48.14.72.2.23.06.46.11.69.16.25.05.49.1.74.13.24.04.48.07.72.09.16.02.33.04.5.04.33.03.66.04,1,.04h8.82v-4.24s.03-1.38-.95-2.55c-.99-1.17-2.62-1.2-2.62-1.2h-4.56s-.07,0-.11,0c-.37,0-1.5-.04-1.5-.04-.61-.04-1.18-.12-1.71-.26l.21-.13,6.19-3.57,2.88-1.66,5.04-2.91c1.55-.89,2.19-2.74,1.6-4.36ZM152.77,27.82l-5.18,2.99c-.15-.55-.23-1.13-.23-1.72,0-.43.04-.86.13-1.27.53-2.82,2.81-5.02,5.68-5.4.3-.05.61-.07.92-.07s.62.02.92.07c1.49.19,2.82.88,3.83,1.89l-6.07,3.51Z"/>
  </g>
</svg>